<?xml version="1.0" standalone="no"?>
<!DOCTYPE svg PUBLIC "-//W3C//DTD SVG 20010904//EN"
 "http://www.w3.org/TR/2001/REC-SVG-20010904/DTD/svg10.dtd">
<svg version="1.0" xmlns="http://www.w3.org/2000/svg"
 width="924.000000pt" height="220.000000pt" viewBox="0 0 924.000000 220.000000"
 preserveAspectRatio="xMidYMid meet">

<g transform="translate(0.000000,220.000000) scale(0.100000,-0.100000)"
fill="#000000" stroke="none">
<path d="M1515 2135 c-190 -64 -382 -115 -434 -115 -47 0 -216 -53 -241 -75
-11 -10 -32 -17 -47 -17 -15 0 -39 -7 -52 -15 -49 -31 -13 7 67 71 84 69 102
93 57 82 -23 -6 -144 -84 -254 -164 -24 -18 -48 -32 -54 -32 -5 0 -32 -14 -59
-30 -46 -29 -48 -29 -37 -8 6 13 21 36 32 51 10 16 17 30 15 32 -4 5 -28 -19
-211 -206 -52 -53 -114 -110 -140 -127 -30 -21 -49 -44 -57 -67 -6 -19 -25
-44 -41 -56 -31 -21 -65 -76 -54 -87 3 -3 67 -6 143 -6 161 0 216 12 393 82
118 47 175 63 282 77 54 7 317 -14 317 -25 0 -5 -33 -15 -72 -24 -162 -36
-411 -165 -529 -274 -184 -170 -278 -376 -267 -586 7 -112 32 -188 95 -280 61
-90 154 -165 278 -226 116 -57 170 -75 257 -90 80 -13 539 -13 518 0 -17 11
-9 14 51 24 21 4 42 13 49 21 7 8 27 15 45 15 56 0 138 19 190 45 28 13 78 31
113 40 118 30 330 117 346 144 3 5 -40 -6 -97 -24 -56 -19 -127 -37 -157 -41
l-55 -7 57 43 c52 39 56 45 51 72 -4 22 0 34 16 49 11 11 21 29 21 40 0 43 35
96 160 243 121 141 139 157 228 211 139 84 209 140 232 186 11 21 18 39 16 39
-3 0 -26 -23 -52 -50 -28 -30 -73 -63 -111 -82 -60 -29 -72 -31 -221 -38 -86
-4 -159 -6 -162 -3 -3 2 3 9 13 14 9 6 17 16 17 24 0 11 -7 11 -37 3 -20 -5
-73 -8 -117 -6 -75 3 -89 8 -187 56 l-105 54 -150 10 c-167 11 -308 5 -403
-17 -145 -35 -295 -146 -352 -260 -28 -57 -31 -72 -27 -128 5 -77 36 -132 100
-174 33 -22 55 -28 113 -31 86 -5 132 12 168 59 51 68 42 133 -28 211 -42 46
-55 76 -55 125 0 102 202 156 412 110 88 -19 183 -85 220 -153 87 -161 26
-380 -153 -550 -75 -71 -128 -103 -224 -135 -60 -21 -89 -24 -210 -24 l-140 0
-80 38 c-86 41 -143 89 -180 152 -34 58 -67 187 -67 264 0 72 35 201 58 214 8
4 14 14 14 21 0 8 32 47 70 87 39 40 70 76 70 79 0 4 -11 12 -25 18 -29 13
-27 19 17 71 27 31 28 31 57 16 39 -20 44 -19 31 4 -23 44 -12 66 69 144 122
117 249 166 426 167 83 0 216 -21 238 -37 20 -16 178 -80 241 -98 47 -14 104
-18 272 -19 200 -1 212 0 197 16 -8 10 -32 22 -52 29 -55 18 -56 26 -4 33 32
4 53 13 64 28 13 17 28 22 71 22 44 1 66 8 123 43 39 22 94 46 124 52 30 7 69
21 88 32 34 21 82 79 65 79 -6 0 -50 -15 -98 -34 -127 -49 -196 -60 -327 -53
-115 6 -219 28 -342 73 -70 25 -71 25 -67 58 6 55 -34 90 -153 131 -55 19
-126 37 -158 41 -88 10 -55 25 67 31 58 3 103 10 100 14 -9 15 -209 10 -271
-6 -76 -20 -137 -20 -130 -1 9 23 -64 30 -163 16 -85 -11 -223 -54 -335 -104
-94 -42 -34 -1 145 100 465 260 586 335 537 334 -7 -1 -84 -25 -172 -55z"/>
<path d="M3715 1810 c-211 -30 -386 -152 -474 -331 -68 -138 -84 -218 -84
-399 0 -127 4 -169 22 -235 70 -258 242 -438 468 -489 83 -18 223 -21 308 -5
119 22 237 91 306 179 l44 55 7 -45 c3 -25 7 -66 7 -92 1 -72 6 -78 62 -78
l49 0 0 365 0 365 -300 0 -300 0 0 -65 0 -65 240 0 241 0 -7 -52 c-33 -270
-223 -447 -479 -448 -308 0 -517 246 -517 610 0 193 52 339 161 453 67 71 122
104 210 129 175 48 377 -4 491 -129 44 -48 90 -139 90 -178 0 -12 17 -15 80
-15 l81 0 -6 38 c-19 112 -78 219 -161 290 -58 51 -167 106 -248 127 -75 19
-214 26 -291 15z"/>
<path d="M4915 1417 c-157 -40 -250 -143 -271 -300 l-7 -48 74 3 74 3 7 43
c20 117 125 194 264 195 139 0 244 -87 244 -204 0 -33 -6 -47 -33 -74 -40 -40
-76 -50 -264 -75 -173 -23 -232 -39 -295 -79 -121 -77 -153 -278 -65 -408 62
-90 200 -141 363 -131 101 6 174 38 248 110 l56 54 15 -54 c14 -45 21 -56 50
-68 19 -8 66 -14 105 -14 l70 0 0 65 0 65 -29 -6 c-23 -5 -35 -1 -55 19 l-26
26 0 294 c0 162 -5 319 -10 348 -22 115 -87 192 -193 225 -68 21 -256 28 -322
11z m385 -676 c-22 -128 -86 -209 -196 -251 -47 -17 -75 -21 -139 -18 -142 6
-225 68 -225 170 0 127 79 176 355 217 72 11 148 26 170 33 l40 13 3 -50 c2
-27 -2 -79 -8 -114z"/>
<path d="M6572 1419 c-116 -22 -234 -111 -290 -218 -51 -94 -62 -156 -62 -338
0 -176 13 -240 64 -321 99 -156 312 -234 518 -191 171 36 300 164 315 313 l6
56 -59 0 c-32 0 -64 -4 -70 -8 -7 -4 -18 -27 -25 -52 -9 -31 -30 -62 -69 -102
-47 -46 -68 -60 -124 -77 -84 -26 -107 -26 -188 -1 -133 41 -211 149 -232 323
l-6 47 397 0 396 0 -7 81 c-4 45 -11 104 -17 132 -17 80 -74 190 -124 241 -99
98 -271 145 -423 115z m234 -144 c87 -43 165 -159 180 -268 l7 -47 -318 0
-318 0 7 47 c9 67 50 151 99 201 98 101 223 126 343 67z"/>
<path d="M7645 1416 c-79 -21 -100 -32 -154 -80 -29 -25 -56 -46 -61 -46 -6 0
-10 25 -10 55 l0 55 -70 0 -70 0 0 -515 0 -515 69 0 69 0 4 343 c5 392 6 401
89 491 65 71 130 100 224 100 82 0 134 -22 183 -78 58 -66 62 -100 62 -498 l0
-358 70 0 71 0 -3 413 c-3 409 -3 412 -27 464 -28 62 -94 127 -159 156 -59 26
-213 33 -287 13z"/>
<path d="M8610 1417 c-159 -38 -262 -146 -277 -293 l-6 -55 74 3 74 3 7 42
c19 112 102 182 229 191 89 6 163 -16 220 -67 l44 -38 3 -80 c4 -77 3 -81 -23
-101 -37 -29 -75 -38 -235 -57 -266 -31 -359 -75 -414 -195 -29 -66 -28 -187
3 -258 46 -102 150 -163 291 -170 154 -8 271 33 353 121 40 44 47 48 47 29 0
-13 7 -38 15 -58 19 -45 64 -64 155 -64 l70 0 0 64 0 64 -37 -4 c-21 -3 -43
-1 -50 3 -26 18 -35 144 -28 398 7 269 0 327 -46 402 -26 41 -88 85 -154 108
-65 22 -241 29 -315 12z m370 -627 c0 -119 -11 -150 -75 -219 -68 -72 -127
-96 -245 -96 -74 0 -104 4 -133 19 -55 27 -90 84 -95 156 -4 55 -2 59 33 98
24 27 57 49 93 63 54 20 335 76 395 78 l27 1 0 -100z"/>
<path d="M6050 1404 c-75 -20 -151 -73 -202 -141 l-43 -57 -3 97 -3 97 -64 0
-65 0 0 -515 0 -515 75 0 75 0 0 313 c0 369 3 386 81 471 60 66 128 101 228
117 l71 12 0 68 0 69 -47 -1 c-27 0 -73 -7 -103 -15z"/>
</g>
</svg>
